<?xml version="1.0" encoding="UTF-8"?>
<svg width="16px" height="17px" viewBox="0 0 16 17" version="1.1" xmlns="http://www.w3.org/2000/svg" xmlns:xlink="http://www.w3.org/1999/xlink">
    <!-- Generator: Sketch 53.1 (72631) - https://sketchapp.com -->
    <title>delete</title>
    <desc>Created with Sketch.</desc>
    <g id="Page-1" stroke="none" stroke-width="1" fill="none" fill-rule="evenodd">
        <g id="Time-Log-01" transform="translate(-1375.000000, -253.000000)" fill="#E02020" fill-rule="nonzero">
            <g id="delete" transform="translate(1375.000000, 253.000000)">
                <g id="Group" transform="translate(0.000000, 2.487273)">
                    <polygon id="Path" points="10.7703683 3.28994192 9.48787228 3.24183282 9.20982427 11.0074912 10.4923203 11.055404"></polygon>
                    <rect id="Rectangle" x="7.00633621" y="3.26588737" width="1.28332804" height="7.76569114"></rect>
                    <polygon id="Path" points="6.08595218 11.0072949 5.80790417 3.24160373 4.52540813 3.28974555 4.80348814 11.055404"></polygon>
                    <path d="M0.0121279996,0.0283745463 L0.0121279996,1.34086913 L1.34937604,1.34086913 L2.41024007,13.6703786 C2.43932807,14.0092041 2.71676808,14.2690913 3.04934409,14.2690913 L12.2250244,14.2690913 C12.5576324,14.2690913 12.8352644,14.0090077 12.8641284,13.6701495 L13.9250244,1.34086913 L15.2838725,1.34086913 L15.2838725,0.0283745463 L0.0121279996,0.0283745463 Z M11.6372803,12.9565967 L3.63692811,12.9565967 L2.63763208,1.34086913 L12.6368004,1.34086913 L11.6372803,12.9565967 Z" id="Shape"></path>
                </g>
                <path d="M9.74412829,0 L5.55187217,0 C4.96217615,0 4.48243213,0.490647287 4.48243213,1.09374549 L4.48243213,3.17189464 L5.76576017,3.17189464 L5.76576017,1.31249458 L9.53024028,1.31249458 L9.53024028,3.17189464 L10.8135683,3.17189464 L10.8135683,1.09374549 C10.8135683,0.490647287 10.3338243,0 9.74412829,0 Z" id="Path"></path>
            </g>
        </g>
    </g>
</svg>
